PathFileType	4	(X/Y/Z)	C:/Users/opensim2020/Desktop/walking_exp_matlab/subject06_walking19_straight_03.trc																																																																																																																																																	
DataRate	CameraRate	NumFrames	NumMarkers	Units	OrigDataRate	OrigDataStartFrame	OrigNumFrames																																																																																																																																													
100	100	7	49	mm	100	3580	358																																																																																																																																													
Frame#	Time	LFHD			RFHD			LBHD			RBHD			C7			T10			CLAV			STRN			RBAK			LSHO			LUPA			LELB			LFRM			LWRA			LWRB			LFIN			RSHO			RUPA			RELB			RFRM			RWRA			RWRB			RFIN			LASI			RASI			LPSI			RPSI			LTHI			LKNE			LTIB			LANK			LHEE			LTOE			RTHI			RKNE			RTIB			RANK			RHEE			RTOE			*39			*40			*41			*42			*43			*44			*45			*46			*47			*48		
		X1	Y1	Z1	X2	Y2	Z2	X3	Y3	Z3	X4	Y4	Z4	X5	Y5	Z5	X6	Y6	Z6	X7	Y7	Z7	X8	Y8	Z8	X9	Y9	Z9	X10	Y10	Z10	X11	Y11	Z11	X12	Y12	Z12	X13	Y13	Z13	X14	Y14	Z14	X15	Y15	Z15	X16	Y16	Z16	X17	Y17	Z17	X18	Y18	Z18	X19	Y19	Z19	X20	Y20	Z20	X21	Y21	Z21	X22	Y22	Z22	X23	Y23	Z23	X24	Y24	Z24	X25	Y25	Z25	X26	Y26	Z26	X27	Y27	Z27	X28	Y28	Z28	X29	Y29	Z29	X30	Y30	Z30	X31	Y31	Z31	X32	Y32	Z32	X33	Y33	Z33	X34	Y34	Z34	X35	Y35	Z35	X36	Y36	Z36	X37	Y37	Z37	X38	Y38	Z38	X39	Y39	Z39	X40	Y40	Z40	X41	Y41	Z41	X42	Y42	Z42	X43	Y43	Z43	X44	Y44	Z44	X45	Y45	Z45	X46	Y46	Z46	X47	Y47	Z47	X48	Y48	Z48	X49	Y49	Z49
																																																																																																																																																				
314	3.13	751.32312	1649.93945	1377.87732	758.0116	1643.62451	1509.58887	620.26843	1590.26672	1384.77979	627.60126	1588.49915	1514.35474	628.69403	1436.82788	1444.07129	592.36987	1109.43457	1456.53406	738.46863	1359.53186	1445.74377	776.33429	1182.68445	1446.36499	556.17596	1270.76208	1529.9248	683.34363	1387.2229	1283.25208	652.42792	1188.00586	1214.34961	629.95721	1078.11169	1205.15747	634.28552	927.09644	1185.0426	679.85608	806.61566	1227.54749	619.32245	808.57916	1190.79028	649.64069	722.5611	1191.69861	696.84772	1396.05457	1605.85669	665.84521	1199.55042	1701.51855	683.0025	1079.34216	1715.76868	726.48431	967.49945	1725.03613	814.91187	851.64502	1674.97327	770.79028	838.18591	1723.66296	826.35815	775.03595	1715.23657	769.45557	949.81824	1349.75684	759.50256	948.58392	1569.63879	611.67511	976.82977	1366.7688	610.10718	979.62952	1535.69836	747.45764	638.23328	1276.6355	794.02838	486.09833	1305.18677	834.65271	232.8221	1306.91809	894.15063	69.0928	1343.0553	864.58972	45.50477	1392.79443	1041.60388	74.52045	1338.29053	661.62213	618.61053	1607.15027	639.56006	493.52405	1585.25635	495.63989	264.06934	1581.61511	402.52884	100.54282	1540.44348	351.75607	89.21479	1500.5929	539.42249	38.26288	1525.5332	651.88458	1686.13513	1439.93274	NaN	NaN	NaN	NaN	NaN	NaN	NaN	NaN	NaN	NaN	NaN	NaN	NaN	NaN	NaN	NaN	NaN	NaN	NaN	NaN	NaN	NaN	NaN	NaN	NaN	NaN	NaN
315	3.14	758.40533	1649.82544	1376.72998	764.49957	1643.30811	1508.15881	627.43195	1589.8656	1383.27808	634.59137	1588.06409	1512.91333	635.87079	1436.51001	1442.45276	600.47717	1108.84167	1454.85291	745.82843	1359.4137	1444.54858	784.02783	1182.58423	1445.30981	563.24091	1270.03711	1527.95789	691.20654	1386.8595	1281.77002	660.83649	1187.41675	1213.00647	637.72308	1077.62317	1204.01587	642.20673	926.54596	1184.17004	687.30005	806.09381	1227.22632	627.15778	807.99438	1190.1687	657.62939	722.06488	1191.21313	703.51178	1395.72095	1604.50867	672.38562	1199.10693	1700.06213	689.63843	1078.92786	1714.50525	733.22913	967.11835	1724.14697	821.70886	851.16211	1674.53296	777.08624	837.4234	1722.61658	833.04254	774.6261	1715.04553	778.13159	949.47559	1348.97815	767.42236	948.35052	1569.00842	620.26563	976.63568	1365.22278	618.04602	979.29486	1534.32336	756.31549	638.00031	1274.97852	799.76978	485.21817	1304.25134	838.76599	232.19408	1307.31848	897.07697	69.09742	1342.78772	867.09564	46.9257	1392.88513	1044.93799	69.36931	1337.65491	668.72278	618.28766	1606.65332	646.35675	493.31485	1584.9165	499.4826	265.6051	1581.28638	404.11694	103.27021	1540.33154	353.44778	92.80926	1500.39941	539.96619	38.47504	1525.86011	658.77136	1685.79736	1438.59448	NaN	NaN	NaN	NaN	NaN	NaN	NaN	NaN	NaN	NaN	NaN	NaN	NaN	NaN	NaN	NaN	NaN	NaN	NaN	NaN	NaN	NaN	NaN	NaN	NaN	NaN	NaN
316	3.15	765.51312	1650.20007	1375.57678	771.56323	1643.698	1507.28027	634.70667	1589.7644	1381.71143	641.45056	1587.91235	1511.37402	643.08289	1436.70264	1440.69312	608.61096	1108.50635	1453.40527	753.11017	1359.61633	1443.27783	791.53961	1182.84338	1444.30542	570.35803	1269.57068	1525.81885	699.06165	1386.61914	1280.24072	668.97162	1187.03455	1211.56848	646.01453	1077.34106	1202.7323	650.30365	926.10614	1183.21399	695.3042	805.67706	1226.61658	635.22443	807.5152	1189.43225	666.0011	721.61804	1190.65869	710.21368	1395.61597	1603.26575	678.95355	1198.77356	1698.5647	696.25299	1078.53491	1713.07129	739.82196	966.76813	1723.09851	828.44769	850.67163	1674.12195	783.49884	837.07513	1721.9928	839.34509	774.18494	1714.69653	786.85126	949.57111	1348.1571	775.48071	948.25629	1568.47534	628.81659	977.03967	1363.86438	626.15106	979.19153	1533.02637	764.75458	638.71613	1273.76282	804.52026	485.03128	1302.46008	843.54095	232.66904	1305.83569	900.45825	68.92535	1341.80884	869.58014	47.96129	1391.81335	1048.1864	66.15964	1337.52356	676.10406	617.99658	1605.94214	653.44574	492.88385	1584.07092	503.72647	267.34302	1580.8114	406.06702	106.38741	1540.36768	355.38239	96.74323	1500.43408	540.32532	38.52908	1525.8407	665.55756	1685.79004	1437.20435	NaN	NaN	NaN	NaN	NaN	NaN	NaN	NaN	NaN	NaN	NaN	NaN	NaN	NaN	NaN	NaN	NaN	NaN	NaN	NaN	NaN	NaN	NaN	NaN	NaN	NaN	NaN
317	3.16	772.61853	1650.85132	1374.37854	777.92566	1644.19751	1505.7605	641.95929	1590.04175	1380.07788	648.44659	1588.14978	1509.74414	650.48694	1437.16345	1438.9718	616.59308	1108.65454	1452.17615	760.40796	1360.13147	1442.06702	799.17395	1183.37976	1443.31409	577.56836	1269.53821	1523.6366	707.05859	1386.54492	1278.67883	677.2691	1186.85583	1209.95605	654.03998	1076.87451	1201.36523	658.49414	925.7431	1182.29004	704.03638	805.55646	1225.67773	643.52332	807.17572	1188.68286	674.32025	721.45508	1190.09912	716.95404	1395.78296	1602.0603	685.5979	1198.69238	1696.98364	702.96393	1078.55994	1711.83472	746.4151	966.54407	1721.9502	835.06683	850.28882	1673.66443	789.64899	836.69116	1721.07642	845.51196	773.92407	1714.47229	795.69855	950.07965	1347.39001	783.47742	948.32196	1567.69397	637.22815	978.02881	1362.83826	634.41876	979.14557	1532.06531	772.94775	640.11243	1272.50415	809.72595	485.4292	1300.56934	848.12732	233.14699	1303.91589	902.93164	68.73618	1340.97168	871.3299	48.90275	1390.63452	1050.55408	62.89352	1337.15686	683.89752	617.85553	1605.10193	661.25275	492.79834	1583.5459	508.49411	269.36108	1580.39807	408.31119	109.83802	1540.27747	357.55695	101.2931	1500.38159	540.66644	38.52681	1525.69092	672.39502	1686.11584	1435.70825	NaN	NaN	NaN	NaN	NaN	NaN	NaN	NaN	NaN	NaN	NaN	NaN	NaN	NaN	NaN	NaN	NaN	NaN	NaN	NaN	NaN	NaN	NaN	NaN	NaN	NaN	NaN
318	3.17	779.84784	1651.62231	1373.11584	785.07751	1645.02441	1504.78418	649.17963	1590.52722	1378.42151	655.30066	1588.60583	1508.13489	657.86554	1437.8175	1437.34058	624.43866	1109.177	1451.03186	767.68732	1360.8584	1440.89087	806.90619	1184.24585	1442.25024	584.64972	1270.02698	1521.8855	715.08093	1386.79089	1277.1864	685.82269	1186.88037	1208.54749	662.87732	1076.78601	1200.09937	667.35992	925.63336	1181.16931	712.12628	805.50726	1225.28052	652.23999	807.12787	1187.67615	682.94281	721.38306	1189.41968	723.77173	1396.32764	1600.83508	692.32837	1198.97461	1695.24365	710.0094	1078.79773	1710.1637	752.83075	966.58313	1720.6062	841.45142	850.03442	1673.34216	795.66248	836.68475	1720.38184	851.44958	773.7251	1714.31885	804.41364	951.24017	1346.60913	791.40344	948.55414	1566.62451	645.53986	979.1405	1362.10901	642.64026	979.24133	1531.27429	780.42334	641.74994	1271.6405	815.82227	486.16251	1298.77246	852.18243	233.3916	1302.06543	904.08472	68.4296	1340.21179	872.13727	49.55925	1390.13123	1051.77954	59.27538	1336.84302	692.21332	617.86499	1604.11633	669.60895	492.77213	1582.85254	513.74011	271.56201	1579.95288	410.92776	113.72269	1540.23083	360.05301	106.20555	1499.98987	540.97479	38.52078	1525.37488	679.34705	1686.67236	1434.15051	NaN	NaN	NaN	NaN	NaN	NaN	NaN	NaN	NaN	NaN	NaN	NaN	NaN	NaN	NaN	NaN	NaN	NaN	NaN	NaN	NaN	NaN	NaN	NaN	NaN	NaN	NaN
319	3.18	787.07251	1652.42249	1371.80469	791.90997	1645.8844	1503.47083	656.50079	1591.1803	1376.68604	662.28339	1589.36377	1506.45728	664.9386	1438.60364	1435.63452	632.42603	1109.8114	1450.05371	775.03058	1361.7804	1439.70911	814.59198	1185.27112	1441.2179	592.03992	1270.53931	1520.15381	723.16315	1387.2843	1275.81946	694.50818	1187.17859	1207.21985	671.67657	1077.09167	1198.54858	676.41034	925.82446	1179.974	720.99463	805.85657	1224.50134	661.20642	807.34296	1186.56738	691.62152	721.64893	1188.84839	730.60193	1397.18567	1599.54675	699.12225	1199.64124	1693.40857	717.41132	1079.58716	1708.62585	759.58624	967.06934	1719.40002	847.72437	849.93988	1672.88354	801.39984	836.71936	1719.43481	856.99048	773.75287	1714.10938	812.94147	952.81836	1345.67126	799.56519	949.11926	1565.53345	653.7392	980.50897	1361.46423	650.7912	979.64349	1530.5116	788.78168	643.68457	1269.56262	822.54291	487.09613	1296.92383	856.10211	233.5981	1300.27466	905.12604	67.94506	1339.58423	872.47498	50.087	1389.41895	1052.3811	56.1326	1336.50574	700.97601	617.9942	1603.26721	678.65308	492.91745	1582.18201	519.43127	273.99252	1579.39441	414.02771	117.89909	1540.07776	363.20129	111.57054	1499.72107	541.61029	38.69428	1525.3158	686.37512	1687.4231	1432.49792	NaN	NaN	NaN	NaN	NaN	NaN	NaN	NaN	NaN	NaN	NaN	NaN	NaN	NaN	NaN	NaN	NaN	NaN	NaN	NaN	NaN	NaN	NaN	NaN	NaN	NaN	NaN
320	3.19	794.30908	1653.37207	1370.39832	798.77167	1646.93115	1502.06909	663.68677	1591.96228	1374.97998	669.08893	1590.25244	1504.76501	672.1864	1439.32776	1434.05273	640.39392	1110.69128	1449.15466	782.45563	1362.94165	1438.59961	822.39539	1186.44226	1440.15002	599.47754	1271.28406	1518.5238	731.08612	1388.06604	1274.51794	703.33649	1187.73059	1205.94849	681.11377	1077.54663	1197.43542	685.76935	926.32495	1178.88708	730.03662	806.51697	1223.73267	670.44617	807.85486	1185.34998	701.11053	722.2431	1187.91931	737.4245	1398.37195	1598.23718	706.08771	1200.6377	1691.63049	724.69159	1080.5686	1706.79712	766.0719	967.73914	1717.95056	853.80664	850.04248	1672.49902	807.05579	837.16931	1718.70532	862.26697	773.82959	1713.93811	821.22388	954.534	1344.60522	807.80505	949.92236	1564.23474	661.87036	981.89264	1360.7771	659.12866	980.11426	1529.70557	797.28577	645.5174	1267.65723	829.56897	488.11224	1295.11121	859.90948	234.1012	1298.79224	906.24194	67.74725	1338.94421	872.71667	51.28245	1389.34802	1053.21631	53.83812	1335.95764	709.96881	618.20605	1602.40674	688.28857	493.07108	1581.40833	525.71429	276.58011	1578.83069	417.62491	122.31426	1539.80164	366.93011	117.29999	1499.42834	542.45349	38.91342	1525.32544	693.36212	1688.2876	1430.80225	NaN	NaN	NaN	NaN	NaN	NaN	NaN	NaN	NaN	NaN	NaN	NaN	NaN	NaN	NaN	NaN	NaN	NaN	NaN	NaN	NaN	NaN	NaN	NaN	NaN	NaN	NaN
